<svg id="Слой_1" data-name="Слой 1" xmlns="http://www.w3.org/2000/svg" width="761.91" height="630.7" viewBox="0 0 761.91 630.7"><defs><style>.cls-1{fill:#f6ff00;}</style></defs><title>Монтажная область 3Test</title><path d="M664.42,457.49a2.16,2.16,0,0,1-1.94-1.23l-16.31-34.4A2.14,2.14,0,0,1,650,420l16.32,34.41a2.15,2.15,0,0,1-1.94,3.06Z"/><path d="M681.48,450.61a2.15,2.15,0,0,1-1.84-1.05L667,428.41a2.14,2.14,0,0,1,3.68-2.19l12.61,21.15a2.15,2.15,0,0,1-1.84,3.24Z"/><path d="M717.83,457.49a2.15,2.15,0,0,1-1.73-.88l-25.22-34.4a2.14,2.14,0,1,1,3.46-2.53l25.22,34.4a2.14,2.14,0,0,1-.46,3A2.17,2.17,0,0,1,717.83,457.49Z"/><path d="M630.26,457.49a2.14,2.14,0,0,1-2.14-2.15V430.51a2.15,2.15,0,0,1,4.29,0v24.83A2.15,2.15,0,0,1,630.26,457.49Z"/><path d="M596.11,457.49a2.15,2.15,0,0,1-1.94-3.06L610.49,420a2.14,2.14,0,0,1,3.87,1.84L598,456.26A2.14,2.14,0,0,1,596.11,457.49Z"/><path d="M579.05,450.61a2.11,2.11,0,0,1-1.1-.31,2.14,2.14,0,0,1-.74-2.93l12.61-21.15a2.14,2.14,0,0,1,3.68,2.19l-12.61,21.15A2.15,2.15,0,0,1,579.05,450.61Z"/><path d="M542.7,457.49a2.15,2.15,0,0,1-1.73-3.41l25.22-34.4a2.14,2.14,0,1,1,3.45,2.53l-25.21,34.4A2.15,2.15,0,0,1,542.7,457.49Z"/><path class="cls-1" d="M299.67,338.68l-33.89,91.56a18.2,18.2,0,0,0,15.05,24.41L321,459.14a18.21,18.21,0,0,0,20.19-19.28l-6.26-96a18.19,18.19,0,0,0-16.14-16.91h0A18.2,18.2,0,0,0,299.67,338.68Z"/><path d="M323,461.4a21.78,21.78,0,0,1-2.28-.13l-40.15-4.49a20.35,20.35,0,0,1-16.82-27.29l33.89-91.55a20.35,20.35,0,0,1,39.39,5.74l6.25,96A20.36,20.36,0,0,1,323,461.4Zm-6.3-132.47a16,16,0,0,0-15,10.49L267.79,431a16.06,16.06,0,0,0,13.27,21.54L321.21,457A16.06,16.06,0,0,0,339,440l-6.26-96A16,16,0,0,0,318.53,329,15.7,15.7,0,0,0,316.72,328.93Z"/><path class="cls-1" d="M423,338.68l33.9,91.56a18.21,18.21,0,0,1-15.05,24.41l-40.15,4.49a18.2,18.2,0,0,1-20.19-19.28l6.25-96a18.21,18.21,0,0,1,16.15-16.91h0A18.19,18.19,0,0,1,423,338.68Z"/><path d="M399.62,461.4a20.36,20.36,0,0,1-20.29-21.68l6.26-96A20.34,20.34,0,0,1,425,337.94h0l33.9,91.55a20.37,20.37,0,0,1-16.82,27.29l-40.15,4.49A22.09,22.09,0,0,1,399.62,461.4Zm6.29-132.47a15.84,15.84,0,0,0-1.81.11A16,16,0,0,0,389.86,344l-6.26,96a16.06,16.06,0,0,0,17.82,17l40.15-4.49A16.06,16.06,0,0,0,454.85,431L421,339.42h0A16,16,0,0,0,405.91,328.93Z"/><path class="cls-1" d="M564,165.78s15.17-14.44,30.32-12.1c10.55,1.63,26.32,7.59,26.32,39.11s-23.89,75.83-23.89,110.83,17,84.94,17,84.94h23.43s-17.53-42.23-2.27-82.9,38.54-81.49,39.65-109.82c.88-22.35,3.42-65.49-37.62-96.09-38.56-28.74-87.19.75-98,.75C539,100.5,533.74,125.4,564,165.78Z"/><path d="M640.4,390.7H612.23l-.5-1.46c-.7-2.05-17.09-50.66-17.09-85.62,0-18.28,6.36-38.92,12.52-58.87,5.85-19,11.38-36.93,11.38-52,0-33.21-18.45-36.06-24.51-37-13.95-2.16-28.36,11.4-28.51,11.53L563.78,169l-1.45-1.93c-30.53-40.69-25.69-65.95-25.47-67l.36-1.7H539c2.12,0,6.77-1.62,12.16-3.49C570.87,88,607.63,75.22,638.23,98c41.16,30.69,39.45,73.56,38.53,96.59l0,1.3c-.77,19.57-11.83,44.81-23.55,71.54-5.57,12.71-11.33,25.85-16.24,38.94-14.78,39.42,2.08,80.91,2.25,81.32Zm-25.09-4.29H634.1a137.43,137.43,0,0,1-5.88-23.72c-2.3-14.52-3.35-36.34,4.69-57.78,5-13.2,10.74-26.4,16.33-39.17,11.55-26.34,22.46-51.22,23.19-70l.05-1.3c.89-22.24,2.54-63.65-36.81-93-28.78-21.46-64.14-9.16-83.14-2.55a84.21,84.21,0,0,1-11.66,3.54,52,52,0,0,0,1.44,15.43c2.18,9.71,7.8,25.24,22.07,44.75,4.62-3.85,17.28-13.09,30.3-11.08,7.83,1.21,13.83,4.16,18.36,9,6.49,6.95,9.78,17.8,9.78,32.23,0,15.67-5.62,33.91-11.57,53.22-6.06,19.65-12.32,40-12.32,57.61C598.93,334.58,612.56,378,615.31,386.41Z"/><circle class="cls-1" cx="459.56" cy="165.63" r="105.04"/><path d="M459.56,272.81a107.17,107.17,0,1,1,75.79-31.39A106.49,106.49,0,0,1,459.56,272.81Zm0-210.08a102.9,102.9,0,1,0,102.9,102.9A103,103,0,0,0,459.56,62.73Z"/><circle class="cls-1" cx="348.53" cy="262.1" r="128.64" transform="translate(-83.26 323.21) rotate(-45)"/><circle class="cls-1" cx="348.53" cy="262.11" r="125.64"/><path d="M444,166.6a135.06,135.06,0,1,0,39.56,95.5A134.18,134.18,0,0,0,444,166.6Zm-95.5,211.72A116.22,116.22,0,1,1,464.74,262.1,116.34,116.34,0,0,1,348.53,378.32Z"/><path class="cls-1" d="M458,244.43c-35.49,0-64.26-35.78-64.26-79.92S422.51,84.59,458,84.59Z"/><path d="M460.14,246.57H458c-17.83,0-34.56-8.6-47.11-24.21s-19.29-36-19.29-57.85,6.85-42.38,19.29-57.86S440.17,82.44,458,82.44h2.14Zm-4.28-159.8c-33.27,1.42-60,35.75-60,77.74s26.71,76.31,60,77.73Z"/><path class="cls-1" d="M77.25,446.86a36.29,36.29,0,0,1-36.18-36.31V70.89a36.16,36.16,0,0,1,41.18-36c55.91,7.69,107.17,32.46,144.34,69.74C264.26,142.44,285,190.76,285,240.72s-20.74,98.28-58.41,136c-37.17,37.28-88.43,62.05-144.34,69.74A36.54,36.54,0,0,1,77.25,446.86Z"/><path class="cls-1" d="M81.84,37.9a33.28,33.28,0,0,0-37.77,33V410.55a33.27,33.27,0,0,0,37.77,33C195.3,427.92,282,343.06,282,240.72S195.3,53.52,81.84,37.9Z"/><path d="M275.32,164.27a210.6,210.6,0,0,0-44.18-64.14C193,61.87,140.42,36.45,83.12,28.56a43.37,43.37,0,0,0-5.8-.4A42.71,42.71,0,0,0,34.65,70.89V410.55a42.71,42.71,0,0,0,42.66,42.73,43.29,43.29,0,0,0,5.81-.4c57.3-7.89,109.86-33.3,148-71.57a210.48,210.48,0,0,0,44.18-64.14,189.45,189.45,0,0,0,0-152.9ZM53.5,410.55V70.89A23.85,23.85,0,0,1,77.32,47a23.27,23.27,0,0,1,3.23.22c111.27,15.32,192,96.69,192,193.48s-80.76,178.17-192,193.49a25.07,25.07,0,0,1-3.24.22h0A23.85,23.85,0,0,1,53.5,410.55Z"/><circle cx="501.63" cy="129.92" r="10.18"/><path class="cls-1" d="M544.09,388.56H701.18a8.51,8.51,0,0,1,7.52,4.54l12.43,23.68a8.5,8.5,0,0,1-7.52,12.45H533.73a8.49,8.49,0,0,1-7.78-11.9l10.36-23.68A8.48,8.48,0,0,1,544.09,388.56Z"/><path d="M713.61,431.37H533.73a10.64,10.64,0,0,1-9.74-14.9l10.36-23.68a10.62,10.62,0,0,1,9.74-6.38H701.18a10.59,10.59,0,0,1,9.41,5.7L723,415.79a10.64,10.64,0,0,1-9.42,15.58ZM544.09,390.7a6.36,6.36,0,0,0-5.82,3.8l-10.36,23.69a6.36,6.36,0,0,0,5.82,8.9H713.61a6.35,6.35,0,0,0,5.62-9.31L706.8,394.1a6.33,6.33,0,0,0-5.62-3.4Z"/><path d="M624.59,350.69H608.76a.86.86,0,0,1,0-1.72h15.83a.86.86,0,0,1,0,1.72Z"/><path d="M628,374.06H615.4a.86.86,0,0,1,0-1.71H628a.86.86,0,1,1,0,1.71Z"/><path d="M624.59,325.56H605.91a.86.86,0,0,1,0-1.72h18.68a.86.86,0,0,1,0,1.72Z"/><path d="M630.81,300.42H603.29a.86.86,0,1,1,0-1.71h27.52a.86.86,0,1,1,0,1.71Z"/><path d="M639.92,275.29H607.43a.86.86,0,1,1,0-1.71h32.49a.86.86,0,0,1,0,1.71Z"/><path d="M651.9,250.16H613.37a.86.86,0,0,1,0-1.72H651.9a.86.86,0,0,1,0,1.72Z"/><path d="M660.89,226.58H622.36a.86.86,0,0,1,0-1.71h38.53a.86.86,0,1,1,0,1.71Z"/><path d="M666.89,200.88H628.36a.86.86,0,1,1,0-1.71h38.53a.86.86,0,1,1,0,1.71Z"/><path d="M628.52,182a.87.87,0,0,1-.85-.75.86.86,0,0,1,.74-1l38.21-5a.86.86,0,1,1,.22,1.7l-38.21,5Z"/><path d="M623.47,165.78a.85.85,0,0,1-.29-1.66l36.32-12.86a.85.85,0,1,1,.57,1.61l-36.31,12.87A1,1,0,0,1,623.47,165.78Z"/><path d="M616.32,153.54a.86.86,0,0,1-.49-1.56l31.57-22.1a.86.86,0,0,1,1,1.41l-31.57,22.09A.82.82,0,0,1,616.32,153.54Z"/><path d="M605.89,146.11a.85.85,0,0,1-.68-1.37l23.34-30.67a.86.86,0,1,1,1.36,1l-23.33,30.66A.88.88,0,0,1,605.89,146.11Z"/><path d="M593.94,140.56a.76.76,0,0,1-.21,0,.86.86,0,0,1-.62-1.05l9.66-37.3a.86.86,0,0,1,1.66.43l-9.66,37.3A.86.86,0,0,1,593.94,140.56Z"/><path d="M579.11,142.19a.85.85,0,0,1-.84-.69l-7.44-37.81a.86.86,0,0,1,1.68-.33L580,141.17a.85.85,0,0,1-.68,1Z"/><path d="M121.73,513.3a32.27,32.27,0,0,1,17.37,5.12,34.77,34.77,0,0,1,11.48,11.47l2.93,4.81,9-11.8-1.61-2.3a47.23,47.23,0,0,0-14.75-13.83,46.65,46.65,0,0,0-24.42-6.62c-14.61,0-26.69,5.43-35.9,16.13a51.76,51.76,0,0,0,.26,67.39c9.21,10.52,21.24,15.86,35.76,15.86a46,46,0,0,0,22.18-5.3,51.35,51.35,0,0,0,15.62-13.35l1.5-1.86-6.72-14.57L150.59,570a41.3,41.3,0,0,1-12.07,11.65,31.74,31.74,0,0,1-16.79,4.77c-9.64,0-17.7-3.66-24.64-11.19s-10.44-16-10.44-25.47c0-9.2,3.28-17.33,10-24.82C103.75,517.1,111.94,513.3,121.73,513.3Z"/><polygon points="188.15 502.34 175 502.34 175 597.35 229.15 597.35 229.15 584.56 188.15 584.56 188.15 502.34"/><path d="M239.64,575.92c0,8.2,2,13.75,6.16,17,3.84,3,10.11,4.45,19.16,4.45h35.38V584.56H265c-6.53,0-9.15-1.18-10.13-1.88-1.68-1.21-2-4.34-2-6.76V554.54h46.09V541.75H252.79V515.12h47.55V502.34h-60.7Z"/><path d="M369.91,508.09c-6.27-5.27-14.28-7.94-23.82-7.94s-17.65,2.75-24.12,8.18c-6.66,5.59-10,13.15-10,22.47v66.55h13.15V561.94h42v35.41h13.15V530.8C380.26,521.49,376.78,513.84,369.91,508.09Zm-23.82,4.85c6.6,0,11.64,1.83,15.42,5.59s5.6,8.58,5.6,14.75v15.87h-42V533.28c0-6.15,1.86-11,5.69-14.73S339.64,512.94,346.09,512.94Z"/><path d="M456.1,508.09c-6.27-5.27-14.28-7.94-23.82-7.94s-17.66,2.75-24.12,8.18c-6.67,5.59-10.05,13.15-10.05,22.47v66.55h13.15v-64A19.81,19.81,0,0,1,417,518.76c3.85-3.91,8.84-5.82,15.27-5.82s11.47,2,15.44,6c3.75,3.82,5.57,8.53,5.57,14.41v64h13.15V530.8C466.44,521.49,463,513.84,456.1,508.09Z"/><rect x="484.06" y="502.34" width="13.15" height="95.01"/><path d="M573.41,508.09c-6.27-5.27-14.28-7.94-23.82-7.94s-17.66,2.75-24.12,8.18c-6.67,5.59-10.05,13.15-10.05,22.47v66.55h13.16v-64a19.85,19.85,0,0,1,5.74-14.59c3.85-3.91,8.85-5.82,15.27-5.82s11.48,2,15.45,6a19.58,19.58,0,0,1,5.57,14.41v64h13.15V530.8C583.76,521.49,580.27,513.84,573.41,508.09Z"/><path d="M620.48,542.6v12.79h58.83c-.86,7.14-4.19,13.65-10.09,19.8-7.24,7.53-15.3,11.19-24.64,11.19s-17.35-3.56-24.47-10.9-10.61-15.75-10.61-25.64c0-10.1,3.63-18.61,11.11-26,7.15-7.08,15-10.53,24-10.53a34.55,34.55,0,0,1,14.79,3.45,28.62,28.62,0,0,1,11.3,9.24l3.18,4.49L682,518.72l-1.43-2.17c-3.24-4.9-8.46-8.92-15.52-12a51.75,51.75,0,0,0-20.44-4.44c-14.44,0-26.43,5.34-35.64,15.87a50,50,0,0,0-12.59,33.82c0,13.66,4.61,25.46,13.72,35.09s20.78,14.6,34.51,14.6a46.67,46.67,0,0,0,31.52-11.86c11-9.62,16.59-23.48,16.59-41.22V542.6Z"/></svg>