<svg xmlns="http://www.w3.org/2000/svg" viewBox="0 0 146.83 123.99"><defs><style>.cls-1{fill:#a6a6a6;}</style></defs><title>Балкон 2</title><g id="Балкон_2" data-name="Балкон 2"><path class="cls-1" d="M507.33,205.67H360.5v-78H507.33Zm-141.83-5H502.33v-68H365.5Z" transform="translate(-360.5 -127.68)"/><rect class="cls-1" x="2.5" y="19.49" width="141.83" height="5"/><rect class="cls-1" x="43.5" y="2.5" width="5" height="72.99"/><rect class="cls-1" x="98.67" y="2.5" width="5" height="72.16"/><path class="cls-1" d="M507.33,251.67H360.5v-51H507.33Zm-141.83-5H502.33v-41H365.5Z" transform="translate(-360.5 -127.68)"/><rect class="cls-1" x="13.66" y="75.49" width="5" height="46"/><rect class="cls-1" x="26.39" y="75.49" width="5" height="46"/><rect class="cls-1" x="39.11" y="75.49" width="5" height="46"/><rect class="cls-1" x="51.83" y="75.49" width="5" height="46"/><rect class="cls-1" x="64.56" y="75.49" width="5" height="46"/><rect class="cls-1" x="77.28" y="75.49" width="5" height="46"/><rect class="cls-1" x="90" y="75.49" width="5" height="46"/><rect class="cls-1" x="102.73" y="75.49" width="5" height="46"/><rect class="cls-1" x="115.45" y="75.49" width="5" height="46"/><rect class="cls-1" x="128.17" y="75.49" width="5" height="46"/></g></svg>