<svg xmlns="http://www.w3.org/2000/svg" viewBox="0 0 139.12 115.13"><defs><style>.cls-1{fill:#a6a6a6;}</style></defs><title>Балкон  1</title><g id="Балкон"><path class="cls-1" d="M247.08,519.27H108V470.87H247.08Zm-134.12-5H242.08V475.87H113Z" transform="translate(-107.95 -404.14)"/><path class="cls-1" d="M165.88,475.87H121.76V404.14h44.12Zm-39.12-5h34.12V409.14H126.76Z" transform="translate(-107.95 -404.14)"/><path class="cls-1" d="M233.27,454.18H188.49v-50h44.78Zm-39.78-5h34.78v-40H193.49Z" transform="translate(-107.95 -404.14)"/><rect class="cls-1" x="100.43" y="2.5" width="5" height="45.04"/><rect class="cls-1" x="102.93" y="17.53" width="19.89" height="5"/><rect class="cls-1" x="12.92" y="69.23" width="5" height="43.39"/><rect class="cls-1" x="24.95" y="69.23" width="5" height="43.39"/><rect class="cls-1" x="36.98" y="69.23" width="5" height="43.39"/><rect class="cls-1" x="49.01" y="69.23" width="5" height="43.39"/><rect class="cls-1" x="61.05" y="69.23" width="5" height="43.39"/><rect class="cls-1" x="73.08" y="69.23" width="5" height="43.39"/><rect class="cls-1" x="85.11" y="69.23" width="5" height="43.39"/><rect class="cls-1" x="97.14" y="69.23" width="5" height="43.39"/><rect class="cls-1" x="109.17" y="69.23" width="5" height="43.39"/><rect class="cls-1" x="121.2" y="69.23" width="5" height="43.39"/></g></svg>