<svg xmlns="http://www.w3.org/2000/svg" viewBox="0 0 110.33 154.67"><defs><style>.cls-1{fill:#a6a6a6;}</style></defs><title>Гардеробна</title><g id="Гардеробна"><path class="cls-1" d="M490.5,1646.83H380.17V1492.17H490.5Zm-105.33-5H485.5V1497.17H385.17Z" transform="translate(-380.17 -1492.17)"/><rect class="cls-1" x="73.17" y="23.33" width="34.67" height="6"/><rect class="cls-1" x="2.5" y="23.33" width="34.17" height="6"/><path class="cls-1" d="M424.13,1538.15l-.11-9.45h2.53a7.21,7.21,0,1,0-7.21-7.21v1.95h-5v-1.95a12.21,12.21,0,1,1,14.74,11.95l.06,4.66Z" transform="translate(-380.17 -1492.17)"/><path class="cls-1" d="M454.25,1629.75H398v-79l1.34-.7c4.46-2.34,8.81-4.73,13-7s8.6-4.72,13.1-7.08l1.2-.63,27.58,15.51Zm-51.25-5h46.25v-71L426.59,1541c-4,2.14-8,4.31-11.82,6.41s-7.74,4.24-11.77,6.38Z" transform="translate(-380.17 -1492.17)"/><path class="cls-1" d="M443,1538.14l-.11-9.45h2.53a7.21,7.21,0,1,0-7.21-7.21v1.95h-5v-1.95A12.21,12.21,0,1,1,448,1533.42l.06,4.66Z" transform="translate(-380.17 -1492.17)"/><path class="cls-1" d="M473.17,1629.73H452.5v-5h15.67v-71L445.5,1541c-2.94,1.56-5.7,3.06-8.05,4.34l-2.4-4.39c2.69-1.47,5.91-3.22,9.33-5l1.2-.63,27.58,15.51Z" transform="translate(-380.17 -1492.17)"/><rect class="cls-1" x="44.42" y="45.96" width="4" height="89.13"/></g></svg>