<svg xmlns="http://www.w3.org/2000/svg" viewBox="0 0 116.33 129.33"><defs><style>.cls-1{fill:#a6a6a6;}</style></defs><title>Духовка</title><g id="Духовка"><path class="cls-1" d="M492.17,1081.5H375.83V962.08a9.93,9.93,0,0,1,9.92-9.92h96.5a9.93,9.93,0,0,1,9.92,9.92Zm-111.33-5H487.17V962.08a4.92,4.92,0,0,0-4.92-4.92h-96.5a4.92,4.92,0,0,0-4.92,4.92Z" transform="translate(-375.83 -952.17)"/><rect class="cls-1" x="2.5" y="14.33" width="111.33" height="4"/><path class="cls-1" d="M477.38,1053.5h-87v-47.62h87Zm-83-4h79v-39.62h-79Z" transform="translate(-375.83 -952.17)"/><rect class="cls-1" x="2.5" y="109.46" width="111.33" height="5"/><path class="cls-1" d="M397.94,997a8.81,8.81,0,1,1,8.81-8.81A8.82,8.82,0,0,1,397.94,997Zm0-13.62a4.81,4.81,0,1,0,4.81,4.81A4.82,4.82,0,0,0,397.94,983.38Z" transform="translate(-375.83 -952.17)"/><path class="cls-1" d="M421.69,997a8.81,8.81,0,1,1,8.81-8.81A8.82,8.82,0,0,1,421.69,997Zm0-13.62a4.81,4.81,0,1,0,4.81,4.81A4.82,4.82,0,0,0,421.69,983.38Z" transform="translate(-375.83 -952.17)"/><path class="cls-1" d="M445.44,997a8.81,8.81,0,1,1,8.81-8.81A8.82,8.82,0,0,1,445.44,997Zm0-13.62a4.81,4.81,0,1,0,4.81,4.81A4.82,4.82,0,0,0,445.44,983.38Z" transform="translate(-375.83 -952.17)"/><path class="cls-1" d="M469.19,997a8.81,8.81,0,1,1,8.81-8.81A8.82,8.82,0,0,1,469.19,997Zm0-13.62a4.81,4.81,0,1,0,4.81,4.81A4.82,4.82,0,0,0,469.19,983.38Z" transform="translate(-375.83 -952.17)"/></g></svg>