<svg xmlns="http://www.w3.org/2000/svg" viewBox="0 0 114.58 148.42"><defs><style>.cls-1,.cls-2{fill:#a6a6a6;}.cls-2{stroke:#27a357;stroke-miterlimit:10;stroke-width:4px;}</style></defs><title>Жалюзи</title><g id="Жалюзи"><path class="cls-1" d="M736.08,269.92H626.9V125.26H736.08Zm-104.19-5h99.19V130.26H631.9Z" transform="translate(-624.33 -121.51)"/><rect class="cls-1" width="114.58" height="7"/><rect class="cls-1" x="5.06" y="25.67" width="104.19" height="4"/><rect class="cls-1" x="5.06" y="49.32" width="104.19" height="4"/><rect class="cls-1" x="5.06" y="72.97" width="104.19" height="4"/><rect class="cls-1" x="5.06" y="96.62" width="104.19" height="4"/><rect class="cls-1" x="5.06" y="120.27" width="104.19" height="4"/><path class="cls-2" d="M733.58,267.43" transform="translate(-624.33 -121.51)"/><path class="cls-2" d="M629.4,267.43" transform="translate(-624.33 -121.51)"/><rect class="cls-1" x="7.4" y="13.84" width="104.19" height="4"/><rect class="cls-1" x="7.4" y="37.49" width="104.19" height="4"/><rect class="cls-1" x="7.4" y="61.14" width="104.19" height="4"/><rect class="cls-1" x="7.4" y="84.79" width="104.19" height="4"/><rect class="cls-1" x="7.4" y="108.44" width="104.19" height="4"/><rect class="cls-1" x="7.4" y="132.09" width="104.19" height="4"/><rect class="cls-1" x="95.5" y="6.25" width="4" height="98.5"/><path class="cls-1" d="M725.5,227.92h-7.25V215.76h7.25Zm-5.25-2h3.25v-8.17h-3.25Z" transform="translate(-624.33 -121.51)"/></g></svg>