<svg xmlns="http://www.w3.org/2000/svg" viewBox="0 0 134.82 151.85"><defs><style>.cls-1{fill:#a6a6a6;}</style></defs><title>Ключи 1</title><g id="Ключи_" data-name="Ключи &gt;"><path class="cls-1" d="M154.27,728.14a37.56,37.56,0,1,1,57.27-5.52l-4.12-2.84a32.57,32.57,0,1,0-49.65,4.79Z" transform="translate(-119.31 -663.77)"/><path class="cls-1" d="M191.25,815.61,178,799.93l8-7.22-8.19-8.52,8-7-7.28-7.6,6.1-8.64-2.74-3.4c-8.78-4.46-14.42-13.19-14.41-22.39a25,25,0,0,1,24.63-24.62,24.65,24.65,0,0,1,24.63,24.63,25.35,25.35,0,0,1-1.11,7.34,26.13,26.13,0,0,1-11.95,14.32l-.08,45.33ZM185,800.41l6.44,7.65,7.25-7.87.08-46.38,1.35-.7c3.1-1.61,8.64-5.32,10.83-12.15a20.37,20.37,0,0,0,.88-5.82,19.65,19.65,0,0,0-19.62-19.62c-11.73,0-19.61,10.15-19.62,19.63,0,7.47,4.74,14.59,12.1,18.13l.51.25,5.8,7.21-5.9,8.36,8.05,8.4-8,7,8.14,8.48Z" transform="translate(-119.31 -663.77)"/><path class="cls-1" d="M119.31,792.08l1.43-20.9,10.79.31-.06-11.82,10.62.44,0-10.52,10.38-2.06.36-4.35c-3.29-9.28-1.37-19.49,5-26.15a25,25,0,0,1,28.54-5.19l-2.14,4.52a20.25,20.25,0,0,0-22.78,4.12c-5.15,5.41-6.61,13.84-3.72,21.48l.2.53-.76,9.22-10,2,0,11.63-10.62-.44.06,11.69H134l-8.57-.24-.7,10.26,10.78-1,32-33.58,1.46.42a23,23,0,0,0,12.77.11l1.46,4.78a27.6,27.6,0,0,1-14.13.3l-31.27,32.78Z" transform="translate(-119.31 -663.77)"/><path class="cls-1" d="M191.23,740.91a9.11,9.11,0,1,1,9.11-9.11A9.12,9.12,0,0,1,191.23,740.91Zm0-13.22a4.11,4.11,0,1,0,4.11,4.11A4.11,4.11,0,0,0,191.23,727.69Z" transform="translate(-119.31 -663.77)"/><polygon class="cls-1" points="119.13 91.58 115.59 88.06 127.74 75.83 115.6 63.85 119.12 60.29 134.82 75.8 119.13 91.58"/></g></svg>