<svg xmlns="http://www.w3.org/2000/svg" viewBox="0 0 122.2 151.85"><defs><style>.cls-1{fill:#a6a6a6;}</style></defs><title>Ключи 2</title><g id="Коючи_" data-name="Коючи &lt;"><path class="cls-1" d="M411.08,730.87a37.56,37.56,0,1,1,57.27-5.52l-4.12-2.84a32.57,32.57,0,1,0-49.65,4.79Z" transform="translate(-352.76 -666.49)"/><path class="cls-1" d="M448.06,818.34l-13.22-15.69,8-7.22-8.19-8.52,8-7-7.28-7.6,6.1-8.64-2.74-3.4c-8.78-4.46-14.42-13.19-14.41-22.39A25,25,0,0,1,449,713.25a24.65,24.65,0,0,1,24.63,24.63,25.3,25.3,0,0,1-1.12,7.35,26.13,26.13,0,0,1-11.95,14.32l-.07,45.33Zm-6.28-15.2,6.44,7.65,7.25-7.87.08-46.38,1.35-.7c3.1-1.61,8.64-5.32,10.83-12.15a20.33,20.33,0,0,0,.88-5.82A19.65,19.65,0,0,0,449,718.25c-11.73,0-19.61,10.15-19.62,19.63,0,7.47,4.74,14.59,12.1,18.13l.51.25,5.8,7.21-5.9,8.36,8.05,8.4-8,7,8.14,8.48Z" transform="translate(-352.76 -666.49)"/><path class="cls-1" d="M376.12,794.81l1.43-20.9,10.79.31-.06-11.82,10.63.44,0-10.53,10.38-2.06.36-4.35c-3.29-9.28-1.37-19.49,5-26.15a25,25,0,0,1,28.54-5.19L441,719.08a20.25,20.25,0,0,0-22.78,4.12c-5.15,5.41-6.61,13.84-3.72,21.48l.2.53-.76,9.22-10,2,0,11.64-10.62-.44.06,11.75L382.21,779l-.7,10.26,10.78-1,32-33.58,1.46.42a23,23,0,0,0,12.77.11l1.46,4.78a27.58,27.58,0,0,1-14.13.3L394.6,793.16Z" transform="translate(-352.76 -666.49)"/><path class="cls-1" d="M448,743.64a9.11,9.11,0,1,1,9.11-9.11A9.12,9.12,0,0,1,448,743.64Zm0-13.22a4.11,4.11,0,1,0,4.11,4.11A4.11,4.11,0,0,0,448,730.42Z" transform="translate(-352.76 -666.49)"/><polygon class="cls-1" points="14.44 92.03 0 76.33 14.45 60.88 18.1 64.3 6.82 76.36 18.12 88.65 14.44 92.03"/></g></svg>