<svg xmlns="http://www.w3.org/2000/svg" viewBox="0 0 137.73 128.08"><defs><style>.cls-1{fill:#a6a6a6;}</style></defs><title>Лоток</title><g id="Лоток"><path class="cls-1" d="M230.33,1907.83H131a19.19,19.19,0,0,1-19.17-19.17c-.4-17.37,1.26-31.29,2.6-42.48.27-2.23.52-4.38.75-6.46,3.35-30.31,9.09-40,13.72-45.13,10.22-11.24,25-14.27,35.57-14.84h33.21c22.2,1.58,31.17,11.5,34.55,15.23l.42.47c5.16,5.67,11,12.1,14.09,51.47l0,.55c1.29,16.46,2.5,32,2.71,41.13A19.2,19.2,0,0,1,230.33,1907.83Zm-65.66-123.08c-9.65.52-23,3.24-32.07,13.2-3.8,4.18-9.22,13.11-12.45,42.32-.23,2.1-.49,4.26-.76,6.51-1.38,11.6-2.95,24.75-2.56,41.83A14.19,14.19,0,0,0,131,1902.83h99.33a14.18,14.18,0,0,0,14.17-14.17c-.21-8.94-1.42-24.42-2.7-40.8l0-.54c-2.95-37.66-8.18-43.42-12.8-48.5l-.43-.48c-3.29-3.63-11-12.14-31.11-13.59Z" transform="translate(-111.77 -1779.75)"/><rect class="cls-1" x="105.06" y="83.23" width="28.86" height="6"/><rect class="cls-1" x="3.15" y="83.23" width="29" height="6"/><path class="cls-1" d="M199.77,1885.5H159.06a19.58,19.58,0,0,1-19.56-19.56v-43.75a19.58,19.58,0,0,1,19.56-19.56h40.71a19.58,19.58,0,0,1,19.56,19.56v43.75A19.58,19.58,0,0,1,199.77,1885.5Zm-40.71-77.87a14.58,14.58,0,0,0-14.56,14.56v43.75a14.58,14.58,0,0,0,14.56,14.56h40.71a14.58,14.58,0,0,0,14.56-14.56v-43.75a14.58,14.58,0,0,0-14.56-14.56Z" transform="translate(-111.77 -1779.75)"/><path class="cls-1" d="M180.2,1865.56a23.85,23.85,0,0,1-5.07-.55c-1.44-.31-7.48-2.76-8.54-8.2-.86-4.44,2-7.85,3.94-10.11,1.73-2,4.63-5.48,9.17-5.58s7.76,3.39,9.83,5.7c2.21,2.47,5.24,5.85,4.44,10.16-.95,5.06-6.43,7.45-7.84,7.82a23.84,23.84,0,0,1-5.87.75Zm-.3-20.43h-.11c-2.73.06-4.74,2.43-6.2,4.16s-3.56,4.21-3.06,6.76c.69,3.53,5.47,5.05,5.51,5.06a19.74,19.74,0,0,0,4.16.44h0a19.79,19.79,0,0,0,4.88-.62c.69-.2,4.38-1.84,4.91-4.68.45-2.37-1.55-4.6-3.48-6.75S182.63,1845.13,179.9,1845.13Z" transform="translate(-111.77 -1779.75)"/><path class="cls-1" d="M163.81,1845.13a4.56,4.56,0,1,1,4.56-4.56A4.57,4.57,0,0,1,163.81,1845.13Zm0-5.13a.56.56,0,1,0,.56.56A.56.56,0,0,0,163.81,1840Z" transform="translate(-111.77 -1779.75)"/><path class="cls-1" d="M174.12,1836.42a4.56,4.56,0,1,1,4.56-4.56A4.57,4.57,0,0,1,174.12,1836.42Zm0-5.13a.56.56,0,1,0,.56.56A.56.56,0,0,0,174.12,1831.3Z" transform="translate(-111.77 -1779.75)"/><path class="cls-1" d="M185.83,1836.42a4.56,4.56,0,1,1,4.56-4.56A4.57,4.57,0,0,1,185.83,1836.42Zm0-5.13a.56.56,0,1,0,.56.56A.56.56,0,0,0,185.83,1831.3Z" transform="translate(-111.77 -1779.75)"/><path class="cls-1" d="M196.23,1845.13a4.56,4.56,0,1,1,4.56-4.56A4.57,4.57,0,0,1,196.23,1845.13Zm0-5.13a.56.56,0,1,0,.56.56A.56.56,0,0,0,196.23,1840Z" transform="translate(-111.77 -1779.75)"/></g></svg>