<svg xmlns="http://www.w3.org/2000/svg" viewBox="0 0 123.63 130.42"><defs><style>.cls-1{fill:#a6a6a6;}</style></defs><title>Люстра</title><g id="Люстра"><path class="cls-1" d="M445.25,418.25H418.58a4.67,4.67,0,0,1-4.67-4.67V398.33h36v15.25A4.67,4.67,0,0,1,445.25,418.25Zm-27.33-15.92v11.25a.67.67,0,0,0,.67.67h26.67a.67.67,0,0,0,.67-.67V402.33Z" transform="translate(-370.75 -398.33)"/><rect class="cls-1" x="59.17" y="17.92" width="4" height="51.17"/><path class="cls-1" d="M388.63,497.38a17.9,17.9,0,0,1-17.87-17.87V465.42H406.5V479.5A17.9,17.9,0,0,1,388.63,497.38Zm-13.87-28V479.5a13.88,13.88,0,0,0,27.75,0V469.42Z" transform="translate(-370.75 -398.33)"/><path class="cls-1" d="M432.56,497.38a17.9,17.9,0,0,1-17.87-17.87V465.42h35.75V479.5A17.9,17.9,0,0,1,432.56,497.38Zm-13.87-28V479.5a13.87,13.87,0,1,0,27.75,0V469.42Z" transform="translate(-370.75 -398.33)"/><path class="cls-1" d="M476.5,497.38a17.9,17.9,0,0,1-17.87-17.87V465.42h35.75V479.5A17.9,17.9,0,0,1,476.5,497.38Zm-13.87-28V479.5a13.88,13.88,0,0,0,27.75,0V469.42Z" transform="translate(-370.75 -398.33)"/><path class="cls-1" d="M410.42,528.75h-.23c-5.51-.08-11.17-2.8-15.55-7.46-6-6.43-9.07-15.68-8.56-26l4,.2c-.46,9.26,2.2,17.46,7.48,23.09,3.63,3.87,8.26,6.13,12.69,6.2,4.09.1,8.5-2.09,12.13-5.88,5.6-5.86,8.51-14.38,8-23.38l4-.24c.6,10.11-2.71,19.72-9.08,26.38C420.88,526.23,415.61,528.75,410.42,528.75Z" transform="translate(-370.75 -398.33)"/><path class="cls-1" d="M454.36,528.75h-.23c-5.25-.07-10.72-2.83-15-7.56-6.06-6.65-9.09-16.12-8.31-26l4,.32c-.69,8.76,2,17.13,7.28,23,3.57,3.92,8,6.2,12.13,6.25s8.65-2.09,12.46-5.9c5.85-5.85,9.14-14.4,9-23.45l4-.05c.13,10.13-3.58,19.73-10.19,26.34C464.9,526.25,459.55,528.75,454.36,528.75Z" transform="translate(-370.75 -398.33)"/></g></svg>