<svg xmlns="http://www.w3.org/2000/svg" viewBox="0 0 127.25 85"><defs><style>.cls-1{fill:#a6a6a6;}</style></defs><title>Микроволовка</title><g id="Микроволовка"><path class="cls-1" d="M495.25,1337H368v-85H495.25ZM373,1332H490.25v-75H373Z" transform="translate(-368 -1252)"/><path class="cls-1" d="M457.88,1321.63H382.13V1266h75.75Zm-71.75-4h67.75V1270H386.13Z" transform="translate(-368 -1252)"/><path class="cls-1" d="M475.38,1283.23a8.81,8.81,0,1,1,8.81-8.81A8.82,8.82,0,0,1,475.38,1283.23Zm0-13.62a4.81,4.81,0,1,0,4.81,4.81A4.82,4.82,0,0,0,475.38,1269.6Z" transform="translate(-368 -1252)"/><rect class="cls-1" x="97.48" y="53.72" width="19.7" height="4"/><path class="cls-1" d="M485.19,1298h-19.7l9.65-8.23Z" transform="translate(-368 -1252)"/><path class="cls-1" d="M465.48,1317.44h19.7l-10,8.32Z" transform="translate(-368 -1252)"/></g></svg>