<svg xmlns="http://www.w3.org/2000/svg" viewBox="0 0 110.33 155.33"><defs><style>.cls-1{fill:#a6a6a6;}</style></defs><title>Оконые решетки</title><g id="Оконые_решетки" data-name="Оконые решетки"><path class="cls-1" d="M491.42,1923.5H381.08v-151H491.42Zm-105.33-5H486.42v-141H386.08Z" transform="translate(-381.08 -1769.83)"/><path class="cls-1" d="M436.25,1902.83l-53.58-53.58,53.58-53.58,53.58,53.58Zm-47.92-53.58,47.92,47.92,47.92-47.92-47.92-47.92Z" transform="translate(-381.08 -1769.83)"/><path class="cls-1" d="M436.25,1885.08l-36.64-36.64,36.64-36.64,36.64,36.64Zm-31-36.64,31,31,31-31-31-31Z" transform="translate(-381.08 -1769.83)"/><rect class="cls-1" x="14.92" y="5.17" width="5" height="146"/><rect class="cls-1" x="34.26" y="5.17" width="5" height="146"/><rect class="cls-1" x="53.07" y="5.17" width="5" height="146"/><rect class="cls-1" x="72.41" y="5.17" width="5" height="146"/><rect class="cls-1" x="91.08" y="5.17" width="5" height="146"/><path class="cls-1" d="M491.42,1925.17H381.08V1769.83H491.42Zm-105.33-5H486.42V1774.83H386.08Z" transform="translate(-381.08 -1769.83)"/></g></svg>