<svg id="Посуда" xmlns="http://www.w3.org/2000/svg" viewBox="0 0 124.96 125.47"><defs><style>.cls-1{fill:#a6a6a6;}</style></defs><title>Посуда</title><path class="cls-1" d="M665,506.05a50.81,50.81,0,1,1,47.14-69.79l-4.64,1.87a45.82,45.82,0,1,0-14.07,53l3.11,3.92A50.28,50.28,0,0,1,665,506.05Z" transform="translate(-614.1 -404.43)"/><path class="cls-1" d="M664.55,491.62a36.38,36.38,0,1,1,36.25-39.53l-5,.43a31.37,31.37,0,1,0-3.84,18l4.37,2.44A36.44,36.44,0,0,1,664.55,491.62Z" transform="translate(-614.1 -404.43)"/><path class="cls-1" d="M724.21,529.9h-18a15.43,15.43,0,0,1-2.76-.23,12.3,12.3,0,0,1-6.69-3.41,13,13,0,0,1-3.23-6.54c-1.09-4.58-1.4-9.09-1.12-16.08.34-8.52.51-12.8,2-16.49a32.94,32.94,0,0,1,1.52-3.17,5.45,5.45,0,0,0,1-3.22c-.08-1.44-.64-2.16-1.66-3.46a19.33,19.33,0,0,1-3.3-5.64,18.86,18.86,0,0,1-.69-12.16,18.31,18.31,0,0,1,5.53-8.45,13.77,13.77,0,0,1,4.95-3,12.19,12.19,0,0,1,3.65-.56l19.06,0a16.73,16.73,0,0,1,8.25,3.45,17.93,17.93,0,0,1,6.24,11.37c.65,5.62-1.79,10.21-2.71,11.94A23.65,23.65,0,0,1,734,477.7a4.36,4.36,0,0,0-1.23,2.48c-.12,1.25.3,2,1.26,3.63a29,29,0,0,1,1.48,2.75c1.55,3.35,1.52,7.92,1.48,16.2,0,4.91-.21,9.91-.54,14.87a12.52,12.52,0,0,1-3.59,8.65A12.15,12.15,0,0,1,724.21,529.9Zm-18.8-78.39a8.19,8.19,0,0,0-2.45.37,9.83,9.83,0,0,0-3.47,2.14,14.23,14.23,0,0,0-4.37,6.61,15.07,15.07,0,0,0,.6,9.62,15.46,15.46,0,0,0,2.69,4.56,9.31,9.31,0,0,1,2.51,5.72,9.14,9.14,0,0,1-1.47,5.31,29,29,0,0,0-1.35,2.81c-1.25,3-1.41,7.08-1.73,15.13-.27,6.69,0,10.76,1,15a9.12,9.12,0,0,0,2.2,4.67,8.22,8.22,0,0,0,4.54,2.26,11.45,11.45,0,0,0,2.05.16h18a8.17,8.17,0,0,0,5.84-2.44,8.62,8.62,0,0,0,2.43-5.9v-.13c.33-4.9.51-9.84.54-14.68,0-8.08,0-12.07-1.11-14.5a25.46,25.46,0,0,0-1.29-2.38c-1-1.7-2-3.45-1.8-6a8.12,8.12,0,0,1,2-4.52,19.93,19.93,0,0,0,1.88-2.87,16.53,16.53,0,0,0,2.27-9.61,13.93,13.93,0,0,0-4.75-8.7,12.72,12.72,0,0,0-6.15-2.6Z" transform="translate(-614.1 -404.43)"/><path class="cls-1" d="M724.81,451.08H704.59V435.19h20.21Zm-16.21-4h12.21v-7.89H708.59Z" transform="translate(-614.1 -404.43)"/><path class="cls-1" d="M720.5,439.19H708.65V427.34H720.5Zm-7.85-4h3.85v-3.85h-3.85Z" transform="translate(-614.1 -404.43)"/><rect class="cls-1" x="86.52" y="111.02" width="28.03" height="4"/><rect class="cls-1" x="84.5" y="58.92" width="15.94" height="4"/><rect class="cls-1" x="104.7" y="58.92" width="3.77" height="4"/><rect class="cls-1" x="112.71" y="58.92" width="3.85" height="4"/><path class="cls-1" d="M630.64,529.9c-2.08,0-2.62-2-3.11-3.85s-1.23-4.6-3.28-6.59a13.36,13.36,0,0,0-6.31-3c-1.72-.44-3.85-1-3.85-3.12s2.14-2.68,3.85-3.12a13.31,13.31,0,0,0,6.3-3c2-2,2.72-4.6,3.24-6.53s1-3.91,3.17-3.91h0c2.13,0,2.67,2.14,3.1,3.85a13.27,13.27,0,0,0,2.93,6.21c2,2.09,4.69,2.82,6.66,3.36s3.92,1.06,3.87,3.2-2.24,2.62-4,3c-2,.43-4.62,1-6.57,3s-2.54,4.62-3,6.58c-.38,1.75-.86,3.94-3,4h-.07Zm-9.1-16.57a13.77,13.77,0,0,1,9,8.86,12.89,12.89,0,0,1,9-9,14.67,14.67,0,0,1-5.75-3.62,14.48,14.48,0,0,1-3.18-5.44,14.73,14.73,0,0,1-3.59,5.92A14.49,14.49,0,0,1,621.55,513.33Z" transform="translate(-614.1 -404.43)"/><path class="cls-1" d="M652.5,472.47c-1.94,0-2.45-1.89-2.82-3.27a9.9,9.9,0,0,0-2.35-4.77,9.57,9.57,0,0,0-4.56-2.16c-1.31-.34-3.28-.84-3.28-2.83s2-2.5,3.28-2.83a9.54,9.54,0,0,0,4.55-2.16,9.66,9.66,0,0,0,2.32-4.72c.37-1.4.89-3.32,2.87-3.32h0c2,0,2.48,2,2.81,3.28a9.51,9.51,0,0,0,2.1,4.48,9.94,9.94,0,0,0,4.82,2.41c1.41.38,3.33.91,3.29,2.91s-2.07,2.44-3.4,2.74a7.24,7.24,0,0,0-6.85,6.85c-.29,1.34-.74,3.36-2.74,3.4h-.07Zm-5.57-13a10.55,10.55,0,0,1,5.47,5.39,9.88,9.88,0,0,1,5.53-5.52,11,11,0,0,1-3.38-2.38,10.9,10.9,0,0,1-2.06-3.13,11.05,11.05,0,0,1-2.38,3.51A10.91,10.91,0,0,1,646.92,459.43Z" transform="translate(-614.1 -404.43)"/></svg>